<?xml version="1.0" encoding="UTF-8"?> <svg xmlns="http://www.w3.org/2000/svg" width="837" height="238" viewBox="0 0 837 238" fill="none"> <g clip-path="url(#clip0)"> <path fill-rule="evenodd" clip-rule="evenodd" d="M70.8673 190.346C65.0341 190.346 65.3771 190.003 57.1419 185.202C48.9067 180.401 37.9265 172.857 33.4656 168.056C29.005 163.255 23.1716 155.024 21.7991 151.252C20.0835 146.794 17.6816 140.964 18.711 137.878C19.3973 136.163 20.7698 134.449 22.1423 129.305C23.5149 124.847 22.1423 116.616 22.1423 113.873C22.1423 111.815 20.4267 107.014 18.711 103.242C16.9953 99.8127 10.8189 94.6689 8.41699 91.2396C6.01506 87.8103 1.55433 77.1794 0.868068 73.0643C0.181799 68.9491 -0.504467 56.6037 0.524933 52.4885C2.24059 43.9154 4.29939 39.1144 6.35819 34.9993C8.76013 29.5124 18.711 19.2244 22.1423 16.8239C29.6913 11.68 37.5834 7.22192 47.1912 4.47849C53.7106 2.42092 58.5145 1.73506 64.0046 1.39213C70.8673 0.363339 89.0534 0.70627 95.9161 2.07799C106.21 4.47849 116.504 8.59364 123.367 13.7376C129.886 19.2244 133.661 22.9967 138.808 31.57C142.239 37.0568 143.612 43.9154 145.327 49.0592C147.043 54.5461 147.386 68.6063 147.386 72.3784C147.386 76.1507 146.014 80.6087 145.67 81.2946C145.327 81.6376 141.896 84.381 141.896 86.4386C141.896 88.4962 141.896 89.182 142.925 90.8966C143.955 92.6113 146.7 98.784 148.072 100.499C149.445 102.213 153.562 109.072 154.592 111.472C155.621 113.873 157.337 116.273 155.964 119.017C154.592 121.76 150.474 121.074 147.729 121.417C145.327 121.76 141.896 121.417 141.21 123.818C140.866 125.189 141.896 126.904 141.896 126.904C143.955 128.619 142.925 132.048 140.866 133.077C139.151 134.106 138.808 134.106 137.092 134.791C135.376 135.477 135.72 135.477 136.749 137.192C137.778 138.907 137.778 140.964 137.435 142.336C137.092 143.708 134.69 143.365 132.631 144.051C130.916 144.736 129.2 145.422 129.2 147.823C129.2 149.194 130.229 152.281 129.2 155.367C128.171 158.111 124.739 161.883 121.651 163.255C118.563 164.626 112.386 164.626 108.955 163.941C105.524 163.255 99.6905 161.197 97.2886 160.511C95.2298 159.825 93.171 160.854 90.426 163.597C87.6809 166.341 84.5926 171.485 82.5338 174.914C80.475 178.344 76.7006 184.516 74.6418 186.574C74.2986 189.317 70.8673 190.346 70.8673 190.346Z" fill="#35B34A"></path> <path fill-rule="evenodd" clip-rule="evenodd" d="M34.4876 46.321H49.2422V93.9883H53.3598V106.334H60.9087C61.595 105.305 62.2813 104.619 62.6245 103.933L62.9675 103.59H56.1049V90.2159H51.9873V43.9206H45.4678V14.4286C42.7228 15.4574 40.3207 16.4862 37.9189 17.8579H43.409V23.6877H37.5757V17.8579C35.8601 18.8867 34.4876 19.9155 33.115 20.9443C23.1641 28.8317 21.4485 32.6039 18.7034 39.1196C18.3603 39.8055 18.3603 40.1483 18.0171 40.8342C16.9877 42.8917 15.6152 45.6352 14.2427 48.0358C12.527 51.122 10.8113 54.2085 10.4682 55.923C8.75255 61.7529 8.40941 72.3836 11.1545 76.8418C11.8407 77.8705 12.8701 78.8994 14.2427 79.9281C13.2133 78.8994 12.527 77.5277 12.527 75.8129C12.527 72.7267 15.2721 69.9832 18.3603 69.9832C21.4485 69.9832 23.8503 72.0408 24.1936 75.1271H42.3795V72.3836H39.2914V65.525H42.3795V62.4388H24.1936C23.5073 65.1822 21.4485 66.8968 18.3603 66.8968C15.2721 66.8968 12.527 64.1533 12.527 61.0671C12.527 57.9806 15.2721 55.2372 18.3603 55.2372C21.1053 55.2372 23.5073 57.2947 24.1936 59.6954H44.7816V67.9256H41.6933V69.9832H44.7816V77.8705H24.1936C23.5073 80.2711 21.1053 81.9856 18.7034 81.9856C18.3603 81.9856 18.0171 81.9856 17.3309 81.9856C18.3603 82.6715 19.7328 83.0145 20.7622 83.7004C22.8211 84.7291 24.5366 86.7866 25.5661 88.8442H39.9777V98.4462H49.9285V113.535C51.301 114.907 52.6735 115.936 54.3893 115.936C54.7323 115.936 55.0756 115.936 55.4186 115.936C56.1049 114.907 57.8206 111.821 59.8794 109.077H51.9873V96.7317H47.8697V48.0358H34.4876C34.1443 50.7792 31.7425 52.8368 28.6542 52.8368C25.5661 52.8368 22.8211 50.0933 22.8211 47.0069C22.8211 43.9206 25.5661 41.1772 28.6542 41.1772C31.7425 41.1772 34.1443 43.5776 34.4876 46.321ZM124.045 55.5802V39.4624L128.506 39.1196C130.222 41.863 131.594 43.9206 131.937 44.9493V45.9782C132.624 50.0933 133.653 59.6954 131.937 63.1246C131.251 64.1533 130.565 65.525 129.879 66.5539H117.869V76.1559C117.526 76.1559 117.183 76.1559 117.183 76.1559C115.81 75.8129 114.095 75.8129 112.722 75.8129C110.32 75.8129 108.948 76.1559 107.918 76.8418H79.0949V60.0382H99.6829V27.117H84.9281V12.714C90.7615 13.3998 97.9674 15.1145 102.428 16.8291V66.8968H91.4477C91.1047 64.4964 89.0459 62.7816 86.3008 62.7816C83.5558 62.7816 81.1537 65.1822 81.1537 67.9256C81.1537 70.6691 83.5558 73.0695 86.3008 73.0695C88.7027 73.0695 90.7615 71.3549 91.4477 68.9543H104.144V17.515C105.173 17.8579 106.203 18.5438 107.232 18.8867C111.006 20.6013 114.781 22.659 117.183 24.7166C118.555 26.0883 121.3 29.1746 124.045 32.6039H117.526V54.8943H114.438V65.8681C113.408 65.1822 112.379 64.4964 111.006 64.4964C108.261 64.4964 105.859 66.8968 105.859 69.6402C105.859 72.3836 108.261 74.7842 111.006 74.7842C113.065 74.7842 114.781 73.7553 115.467 72.0408H115.81V70.6691C115.81 70.326 115.81 69.9832 115.81 69.6402C115.81 69.2974 115.81 68.9543 115.81 68.6115V56.2661H118.898V34.3186H125.075C125.761 35.3473 126.791 36.3762 127.477 37.4049L122.33 37.7479V55.5802C119.928 55.923 118.212 57.9806 118.212 60.724C118.212 63.4675 120.614 65.8681 123.359 65.8681C126.104 65.8681 128.506 63.4675 128.506 60.724C128.163 57.9806 126.447 55.923 124.045 55.5802ZM128.163 68.9543C127.477 69.6402 126.791 70.326 126.104 71.0119C124.045 73.0695 121.987 74.4412 120.271 75.1271V68.6115H128.163V68.9543ZM130.565 68.6115C131.594 67.2398 132.624 65.525 133.653 63.8105C135.712 60.0382 134.683 50.4362 133.996 45.6352V44.6065C133.31 40.1483 120.957 26.4311 118.212 23.6877C115.81 21.2872 111.693 19.2296 107.918 17.515C106.889 17.1721 105.859 16.4862 104.83 16.1433C98.9967 13.3998 86.6438 10.9993 79.7812 10.6564C77.0361 10.3135 73.2615 10.3135 69.1439 10.3135C61.9382 10.3135 55.4186 10.6564 51.9873 11.3423C45.4679 12.3711 37.5757 15.8003 32.4288 19.5726C22.1348 27.46 20.0759 31.5752 17.3309 38.4338C16.9877 38.7766 16.9877 39.4624 16.6446 40.1483C15.6152 42.2059 14.2427 44.9493 12.8701 47.3499C11.1545 50.7792 9.43881 53.8655 8.75254 55.5802C7.03688 61.4099 6.35061 72.7267 9.78194 77.8705C11.8407 80.957 16.3015 83.0145 20.076 84.7291C23.1641 86.1008 25.5661 91.2448 25.5661 92.2735C25.5661 94.3311 32.0855 101.876 36.2031 103.59C37.2327 103.933 38.9482 104.276 40.3207 104.619C41.6933 104.962 43.7521 105.305 44.0953 105.648V105.991C44.0953 107.362 44.0953 109.42 46.4971 111.478C46.8404 111.821 47.1834 112.163 47.5266 112.506V112.849H47.8697L48.2129 113.192C49.9285 114.907 51.9873 116.964 54.7323 116.964C55.4186 116.964 55.7619 116.964 56.4481 116.622H56.7911V116.279C56.7911 116.279 62.2813 107.705 63.997 105.305C64.3401 104.619 65.0263 104.276 65.3696 103.59H66.0558V103.247C66.3989 102.904 66.3989 102.904 66.7421 102.561C68.4577 101.19 70.1735 99.8179 70.5165 98.1034C70.8597 96.0458 76.3499 91.9307 78.0654 91.5876C79.7812 91.2448 83.5555 91.2448 87.3301 91.5876C90.0752 91.9307 91.4477 90.2159 92.8203 88.8442C93.5065 87.8155 94.536 87.1297 95.5653 86.7866H95.9086H96.2516C98.3104 86.4438 101.399 84.7291 103.801 83.0145H104.144V82.6715C104.83 81.9856 105.859 81.2998 106.203 80.6139C107.232 79.2422 107.918 78.5563 107.918 78.5563C108.261 78.5563 108.261 78.5564 108.604 78.2135C108.948 77.8705 110.32 77.5277 112.379 77.5277C113.751 77.5277 115.124 77.5277 116.497 77.8705C116.84 77.8705 117.183 77.8705 117.526 77.8705C121.3 77.8705 125.761 74.0984 127.134 72.3836C128.506 71.3549 129.536 70.326 130.565 68.6115ZM106.203 78.2135C105.859 78.5564 105.516 78.8994 105.173 79.2422C104.83 79.5852 104.487 79.9281 104.144 80.2711H75.3204V55.5802H95.9086V31.2321H80.4675V12.3711C81.1537 12.3711 82.1832 12.3711 82.8695 12.714V28.8317H97.6241V58.3236H77.0361V78.2135H106.203ZM101.055 82.6715C99.3399 83.7004 97.2811 84.7291 95.9086 84.7291C95.5653 84.7291 95.5653 84.7291 95.2223 85.0721H70.5165L70.8597 71.6978H69.4872V50.4362H91.4477V36.3762H76.3499V12.0281C77.0361 12.0281 77.7224 12.0281 78.4087 12.0281V33.6328H93.8498V52.8368H73.2615V82.6715H101.055ZM92.4772 86.7866C92.134 87.1297 91.791 87.4725 91.4477 87.8155C90.0752 89.1872 89.0459 90.2159 87.3301 89.8731C85.2713 89.5301 83.5555 89.5301 81.84 89.5301C80.4675 89.5301 79.0949 89.5301 78.0654 89.8731V89.5301H66.0558V78.5563H62.9675V46.6641H69.4872V11.6852C71.2027 11.6852 72.9185 11.6852 74.6341 11.6852V37.7479H89.7322V48.3786H67.7714V73.0695H69.1439L68.8009 86.4438H92.4772V86.7866ZM26.9387 90.559C27.2817 91.2448 27.2817 91.9307 27.2817 92.2735C27.2817 93.3024 33.1151 100.161 36.8894 101.876C37.5757 102.219 39.2915 102.561 40.664 102.561C43.409 102.904 45.8109 103.247 45.8109 104.962C45.8109 105.305 45.8109 105.305 45.8109 105.648C45.8109 107.02 45.8109 108.391 47.5266 109.763V99.4751H37.5757V89.8731H26.9387V90.559ZM74.9773 91.2448C73.9478 91.9307 72.5753 92.9594 71.546 93.9883H63.3108V83.7004H58.5069V42.5489H63.3108V11.6852C64.6833 11.6852 66.3989 11.6852 67.7714 11.6852V45.2923H61.252V80.2711H64.3401V91.2448H74.9773ZM69.8302 95.7028C69.1439 96.3886 68.8009 97.0745 68.8009 97.7604C68.4577 98.7893 67.4284 100.161 66.0558 101.19H58.8499V87.8155H54.7323V41.52H48.2129V13.3998C49.2422 13.0569 50.2717 13.0569 50.958 12.714V17.8579H56.7911V12.3711C58.1637 12.3711 59.5362 12.3711 60.9087 12.0281V41.1772H56.1049V85.4149H60.9087V95.7028H69.8302ZM37.2327 36.0331C37.2327 37.4049 36.2031 38.4338 34.8306 38.4338H31.3993C30.0267 38.4338 28.9975 37.4049 28.9975 36.0331C28.9975 34.6614 30.0267 33.6328 31.3993 33.6328H34.8306C35.8601 33.6328 37.2327 34.6614 37.2327 36.0331ZM37.2327 28.4887C37.2327 29.8604 36.2031 30.8893 34.8306 30.8893H31.3993C30.0267 30.8893 28.9975 29.8604 28.9975 28.4887C28.9975 27.117 30.0267 26.0883 31.3993 26.0883H34.8306C35.8601 25.7453 37.2327 27.117 37.2327 28.4887ZM79.4382 43.5776C79.4382 44.9493 78.4087 45.9782 77.0361 45.9782H73.6048C72.2322 45.9782 71.2027 44.9493 71.2027 43.5776C71.2027 42.2059 72.2322 41.1772 73.6048 41.1772H77.0361C78.4087 41.1772 79.4382 42.2059 79.4382 43.5776ZM96.9379 19.9155C96.9379 21.2872 95.9086 22.316 94.536 22.316H91.1047C89.7322 22.316 88.7027 21.2872 88.7027 19.9155C88.7027 18.5438 89.7322 17.515 91.1047 17.515H94.536C95.9086 17.1721 96.9379 18.5438 96.9379 19.9155ZM50.6147 38.0907H57.4774V31.5752H50.6147V38.0907ZM50.6147 28.4887H57.4774V21.9732H50.6147V28.4887ZM80.8105 46.6641H87.6734V40.8342H80.8105V46.6641ZM105.859 57.9806H111.693V52.1509H105.859V57.9806ZM105.859 45.6352H111.693V39.8055H105.859V45.6352ZM105.859 34.3186H111.693V28.4887H105.859V34.3186ZM28.6542 42.8917C26.2524 42.8917 24.5366 44.6065 24.5366 47.0069C24.5366 49.4075 26.2524 51.122 28.6542 51.122C31.0562 51.122 32.7718 49.4075 32.7718 47.0069C32.7718 44.6065 31.0562 42.8917 28.6542 42.8917ZM18.7034 56.6089C16.3015 56.6089 14.5858 58.3236 14.5858 60.724C14.5858 63.1246 16.3015 64.8392 18.7034 64.8392C21.1053 64.8392 22.8211 63.1246 22.8211 60.724C22.8211 58.3236 20.7622 56.6089 18.7034 56.6089ZM18.7034 71.6978C16.3015 71.6978 14.5858 73.4125 14.5858 75.8129C14.5858 78.2135 16.3015 79.9281 18.7034 79.9281C21.1053 79.9281 22.8211 78.2135 22.8211 75.8129C22.8211 73.4125 20.7622 71.6978 18.7034 71.6978ZM123.016 56.9519C121.3 56.9519 119.585 58.3236 119.585 60.3812C119.585 62.0958 120.957 63.8105 123.016 63.8105C124.732 63.8105 126.447 62.4388 126.447 60.3812C126.447 58.6665 125.075 56.9519 123.016 56.9519ZM110.32 66.5539C108.604 66.5539 106.889 67.9256 106.889 69.9832C106.889 71.6978 108.261 73.4125 110.32 73.4125C112.379 73.4125 113.751 72.0408 113.751 69.9832C113.751 67.9256 112.379 66.5539 110.32 66.5539ZM86.3008 64.4964C84.585 64.4964 82.8695 65.8681 82.8695 67.9256C82.8695 69.6402 84.242 71.3549 86.3008 71.3549C88.0164 71.3549 89.7322 69.9832 89.7322 67.9256C89.7322 65.8681 88.0164 64.4964 86.3008 64.4964Z" fill="white"></path> <path fill-rule="evenodd" clip-rule="evenodd" d="M249.308 45.968C251.709 46.9967 253.769 48.3684 255.484 50.0831C257.199 51.7977 258.572 53.8553 259.603 56.2559C260.632 58.6563 261.318 61.0569 261.318 63.8003V69.63C261.318 71.0017 260.632 72.0306 259.26 72.3734L245.191 76.1457C243.817 76.4886 243.131 76.1457 243.131 74.431V64.1431C243.131 63.1144 242.788 62.0855 242.102 61.3997C241.416 60.7138 240.387 60.371 239.358 60.371H237.984C236.954 60.371 235.925 60.7138 235.239 61.3997C234.553 62.0855 234.21 63.1144 234.21 64.1431V78.2033C234.21 79.232 234.553 80.2609 234.896 81.2896C235.239 81.9754 235.925 83.0043 236.611 83.6902L256.856 99.1219C258.572 100.494 259.603 102.208 259.946 103.58C260.289 104.952 260.632 106.666 260.975 108.724V135.472C260.975 138.216 260.289 140.616 259.26 143.017C258.229 145.417 256.856 147.475 255.141 149.189C253.426 150.904 251.366 152.276 248.965 153.305C246.563 154.334 244.16 155.019 241.416 155.019H235.582C232.838 155.019 230.435 154.334 228.034 153.305C225.632 152.276 223.572 150.904 221.857 149.189C220.142 147.475 218.77 145.417 217.741 143.017C216.709 141.302 216.023 138.559 216.023 136.158V121.069C216.023 119.698 216.709 118.669 218.084 118.326L232.152 114.554C233.524 114.211 234.21 114.554 234.21 116.268V135.472C234.21 136.501 234.553 137.53 235.239 138.216C235.925 138.902 236.954 139.245 237.984 139.245H239.358C240.387 139.245 241.416 138.902 242.102 138.216C242.788 137.53 243.131 136.501 243.131 135.472V114.897C243.131 113.525 242.788 112.496 242.445 111.467C242.102 110.439 241.416 109.41 240.73 108.724L220.485 93.2922C218.77 91.9205 217.741 90.5488 217.053 88.834C216.366 87.4623 216.023 85.4047 216.023 83.0043V64.4862C216.023 61.7427 216.709 59.3421 217.741 56.9417C218.77 54.5411 220.142 52.4835 221.857 50.769C223.572 49.0542 225.632 47.6825 228.034 46.6538C230.435 45.625 232.838 44.9391 235.582 44.9391H241.416C244.16 44.5963 246.906 44.9391 249.308 45.968ZM325.14 61.7427C325.483 62.0855 325.483 62.7714 325.14 63.1144L303.866 102.894L324.797 152.276C325.14 152.962 324.797 153.305 324.797 153.648C324.454 153.991 324.111 154.334 323.425 154.334H307.984C307.298 154.334 306.955 153.991 306.267 153.648C305.581 153.305 305.238 152.962 305.238 152.276L293.916 126.556L291.17 131.7V152.276C291.17 153.648 290.484 154.334 289.112 154.334H275.386C274.014 154.334 273.328 153.648 273.328 152.276V63.1144C273.328 61.7427 274.014 61.0569 275.386 61.0569H289.112C290.484 61.0569 291.17 61.7427 291.17 63.1144V90.2057L305.581 62.7714C306.267 61.3997 306.955 61.0569 308.671 61.0569H324.111C324.797 61.0569 325.14 61.3997 325.14 61.7427ZM353.963 152.276C353.963 153.648 353.277 154.334 351.905 154.334H338.179C336.807 154.334 336.121 153.648 336.121 152.276V63.1144C336.121 61.7427 336.807 61.0569 338.179 61.0569H351.905C353.277 61.0569 353.963 61.7427 353.963 63.1144V152.276ZM408.521 138.559V152.276C408.521 153.648 407.835 154.334 406.463 154.334H371.121C369.749 154.334 369.062 153.648 369.062 152.276V63.1144C369.062 61.7427 369.749 61.0569 371.121 61.0569H384.846C386.218 61.0569 386.904 61.7427 386.904 63.1144V136.158H406.12C407.835 136.158 408.521 137.187 408.521 138.559ZM459.992 138.559V152.276C459.992 153.648 459.306 154.334 457.934 154.334H422.59C421.217 154.334 420.531 153.648 420.531 152.276V63.1144C420.531 61.7427 421.217 61.0569 422.59 61.0569H436.315C437.689 61.0569 438.375 61.7427 438.375 63.1144V136.158H457.591C459.306 136.158 459.992 137.187 459.992 138.559ZM509.06 47.6825V61.3997C509.06 62.7714 508.374 63.4573 507.002 63.4573H489.158V85.7477H504.599C505.973 85.7477 506.659 86.4336 506.659 87.8053V101.522C506.659 102.894 505.973 103.58 504.599 103.58H489.158V151.59C489.158 152.962 488.472 153.648 487.1 153.648H473.375C472.002 153.648 471.316 152.962 471.316 151.59V47.6825C471.316 46.3108 472.002 45.625 473.375 45.625H507.345C508.374 45.625 509.06 46.3108 509.06 47.6825ZM561.903 152.276C562.246 153.648 561.56 154.334 560.186 154.334H546.118C544.746 154.334 544.059 153.648 543.716 152.276L542.344 136.844H532.735L531.363 152.276C531.02 153.648 530.334 154.334 528.962 154.334H514.894C513.522 154.334 512.835 153.648 513.178 152.276L524.844 63.1144C525.187 61.7427 525.873 61.0569 527.247 61.0569H547.835C549.207 61.0569 550.236 61.7427 550.236 63.1144L561.903 152.276ZM603.765 61.7427C606.167 62.7714 608.227 64.1431 609.942 65.8579C611.657 67.5724 613.029 69.63 614.058 72.0306C615.089 74.431 615.776 76.8316 615.776 79.575V88.834C615.776 90.2057 615.087 91.2346 613.715 91.5774L599.647 93.635C598.275 93.978 597.589 93.635 597.589 91.9205V79.9179C597.589 78.8892 597.246 77.8603 596.56 77.1744C595.874 76.4886 594.844 76.1457 593.813 76.1457H592.441C591.412 76.1457 590.383 76.4886 589.697 77.1744C589.011 77.8603 588.668 78.8892 588.668 79.9179V134.786C588.668 135.815 589.011 136.844 589.697 137.53C590.383 138.216 591.412 138.559 592.441 138.559H593.813C594.844 138.559 595.874 138.216 596.56 137.53C597.246 136.844 597.589 135.815 597.589 134.786V116.268C597.589 114.897 598.275 114.211 599.647 114.554L613.715 116.268C615.087 116.611 615.776 117.64 615.776 119.012V135.472C615.776 138.216 615.089 140.616 614.058 143.017C613.029 145.417 611.657 147.475 609.942 149.189C608.227 150.904 606.167 152.276 603.765 153.305C601.364 154.334 598.961 155.019 596.217 155.019H590.383C587.639 155.019 585.235 154.334 582.834 153.305C580.431 152.276 578.373 150.904 576.658 149.189C574.943 147.475 573.568 145.417 572.539 143.017C571.51 140.616 570.824 138.216 570.824 135.472V79.575C570.824 76.8316 571.51 74.431 572.539 72.0306C573.568 69.63 574.943 67.5724 576.658 65.8579C578.373 64.1431 580.431 62.7714 582.834 61.7427C585.235 60.7138 587.639 60.028 590.383 60.028H596.217C598.961 60.028 601.364 60.371 603.765 61.7427ZM665.872 63.4573V77.1744C665.872 78.5461 665.186 79.232 663.814 79.232H652.833V152.276C652.833 153.648 652.147 154.334 650.775 154.334H637.05C636.364 154.334 636.02 153.991 635.677 153.648C635.332 153.305 634.989 152.619 634.989 151.933V79.232H624.01C622.638 79.232 621.952 78.5461 621.952 77.1744V63.4573C621.952 62.0855 622.638 61.3997 624.01 61.3997H664.157C665.186 61.0569 665.872 61.7427 665.872 63.4573ZM719.059 136.158C719.059 138.902 718.372 141.302 717.341 143.703C716.312 146.103 714.94 148.161 713.225 149.875C711.51 151.59 709.45 152.962 707.048 153.991C704.647 155.019 702.244 155.705 699.5 155.705H693.666C690.922 155.705 688.519 155.019 686.117 153.991C683.716 152.962 681.656 151.59 679.941 149.875C678.226 148.161 676.853 146.103 675.822 143.703C674.793 141.302 674.107 138.902 674.107 136.158V79.575C674.107 76.8316 674.793 74.431 675.822 72.0306C676.853 69.63 678.226 67.5724 679.941 65.8579C681.656 64.1431 683.716 62.7714 686.117 61.7427C688.519 60.7138 690.922 60.028 693.666 60.028H699.5C702.244 60.028 704.647 60.7138 707.048 61.7427C709.45 62.7714 711.51 64.1431 713.225 65.8579C714.94 67.5724 716.312 69.63 717.341 72.0306C718.372 74.431 719.059 76.8316 719.059 79.575V136.158ZM749.597 152.276C749.597 153.648 748.91 154.334 747.195 154.334H733.47C732.098 154.334 731.41 153.648 731.41 152.276V63.1144C731.41 61.7427 732.098 61.0569 733.47 61.0569H756.802C759.549 61.0569 761.95 61.7427 764.351 62.7714C766.754 63.8003 768.812 65.172 770.528 66.8865C772.243 68.6013 773.617 70.6589 774.646 73.0593C775.675 75.4599 776.361 77.8603 776.361 80.6037V99.8077C776.361 103.58 775.332 107.009 772.931 110.096C770.528 113.182 767.783 115.582 764.694 117.297L779.448 152.276C779.793 153.648 779.105 154.334 777.733 154.334H763.665C762.979 154.334 762.293 153.991 761.95 153.648C761.264 153.305 760.921 152.619 760.921 151.933L749.597 123.127V152.276ZM836.41 61.7427C836.753 62.0855 836.753 62.7714 836.41 63.1144L818.566 118.326V152.276C818.566 153.648 817.88 154.334 816.508 154.334H802.44C801.068 154.334 800.382 153.648 800.382 152.276V118.326L782.195 63.4573C781.852 62.7714 782.195 62.4286 782.195 62.0855C782.538 61.7427 782.881 61.3997 783.567 61.3997H800.036C801.411 61.3997 802.44 62.0855 802.44 63.4573L808.616 93.2922H809.302L815.479 63.4573C815.822 62.0855 816.508 61.3997 817.88 61.3997H834.352C835.724 61.0569 836.067 61.3997 836.41 61.7427ZM540.972 119.698L537.883 85.4047H536.511L533.423 119.698H540.972ZM700.529 80.2609C700.529 79.232 700.186 78.2033 699.5 77.5175C698.814 76.8316 697.785 76.4886 696.753 76.4886H695.381C694.352 76.4886 693.323 76.8316 692.637 77.5175C691.951 78.2033 691.608 79.232 691.608 80.2609V135.13C691.608 136.158 691.951 137.187 692.637 137.873C693.323 138.559 694.352 138.902 695.381 138.902H696.753C697.785 138.902 698.814 138.559 699.5 137.873C700.186 137.187 700.529 136.158 700.529 135.13V80.2609ZM749.597 102.894H754.744C755.773 102.894 756.802 102.551 757.488 101.865C758.174 101.179 758.517 100.151 758.517 99.1219V81.6326C758.517 80.6037 758.174 79.575 757.488 78.8892C756.802 78.2033 755.773 77.8603 754.744 77.8603H749.597V102.894Z" fill="black"></path> <path d="M477.081 209.326V226.369H470.996V196.924H477.081V199.645C479.082 197.484 482.125 196.204 485.407 196.204C489.17 196.204 492.372 197.804 494.534 200.765C496.936 197.884 500.699 196.204 504.782 196.204C512.227 196.204 517.191 201.725 517.191 209.566V226.449H511.106V209.646C511.106 205.166 508.464 202.125 504.381 202.125C500.298 202.125 497.096 205.246 497.096 209.406V226.449H491.011V209.646C491.011 205.166 488.369 202.125 484.286 202.125C480.283 202.045 477.081 205.166 477.081 209.326Z" fill="#5A5A5A"></path> <path d="M547.294 200.125V196.924H553.379V226.369H547.294V223.168C544.812 225.649 541.37 227.169 537.367 227.169C528.72 227.169 522.075 220.448 522.075 211.726C522.075 202.925 528.72 196.284 537.367 196.284C541.45 196.124 544.812 197.644 547.294 200.125ZM528.48 211.566C528.48 217.167 532.483 221.168 537.927 221.168C543.451 221.168 547.374 217.087 547.374 211.566C547.374 206.046 543.451 201.965 537.927 201.965C532.483 202.045 528.48 205.966 528.48 211.566Z" fill="#5A5A5A"></path> <path d="M567.549 187.964C567.549 190.124 565.788 191.884 563.626 191.884C561.464 191.884 559.783 190.124 559.783 187.964C559.783 185.803 561.464 184.123 563.626 184.123C565.788 184.123 567.549 185.803 567.549 187.964ZM566.668 226.37H560.584V196.925H566.668V226.37Z" fill="#5A5A5A"></path> <path d="M580.279 226.37H574.194V184.764H580.279V226.37Z" fill="#5A5A5A"></path> <path d="M591.566 227.17C589.405 227.17 587.483 225.41 587.483 223.009C587.483 220.609 589.485 218.849 591.566 218.849C593.728 218.849 595.65 220.609 595.65 223.009C595.65 225.41 593.728 227.17 591.566 227.17Z" fill="#5A5A5A"></path> <path d="M608.701 211.008V226.291H602.616V196.846H608.701V200.846C610.862 198.046 613.745 196.846 617.908 196.846H620.31V202.527H617.908C612.464 202.527 608.701 205.967 608.701 211.008Z" fill="#5A5A5A"></path> <path d="M645.447 213.648V196.926H651.532V226.371H645.447V223.41C643.286 225.73 640.003 227.091 636.401 227.091C629.035 227.091 624.151 221.57 624.151 213.568V196.846H630.236V213.408C630.236 218.209 633.118 221.17 637.441 221.17C641.925 221.17 645.447 217.809 645.447 213.648Z" fill="#5A5A5A"></path> <path d="M696.368 199.966V196.925H702.452V222.449C702.452 231.891 696.368 237.732 686.76 237.732C682.037 237.732 677.313 236.292 674.111 234.051L676.913 228.93C679.475 230.691 683.238 231.811 686.76 231.811C692.765 231.811 696.287 228.61 696.287 223.09V222.529C693.806 225.01 690.363 226.37 686.36 226.37C677.713 226.37 671.068 219.889 671.068 211.328C671.068 202.766 677.713 196.285 686.36 196.285C690.443 196.125 693.886 197.485 696.368 199.966ZM677.473 211.168C677.473 216.608 681.476 220.369 686.92 220.369C692.445 220.369 696.368 216.528 696.368 211.168C696.368 205.807 692.445 201.966 686.92 201.966C681.476 202.046 677.473 205.807 677.473 211.168Z" fill="#5A5A5A"></path> <path d="M715.421 211.008V226.291H709.336V196.846H715.421V200.846C717.582 198.046 720.464 196.846 724.627 196.846H727.029V202.527H724.627C719.183 202.527 715.421 205.967 715.421 211.008Z" fill="#5A5A5A"></path> <path d="M743.441 227.089C734.634 227.089 727.669 220.288 727.669 211.647C727.669 203.005 734.634 196.204 743.441 196.204C752.248 196.204 759.213 203.005 759.213 211.647C759.213 220.288 752.248 227.089 743.441 227.089ZM743.441 221.168C748.885 221.168 752.888 217.088 752.888 211.567C752.888 206.046 748.885 201.965 743.441 201.965C737.997 201.965 733.994 206.046 733.994 211.567C733.994 217.088 737.997 221.168 743.441 221.168Z" fill="#5A5A5A"></path> <path d="M785.474 213.648V196.926H791.559V226.371H785.474V223.41C783.312 225.73 780.03 227.091 776.427 227.091C769.061 227.091 764.178 221.57 764.178 213.568V196.846H770.262V213.408C770.262 218.209 773.145 221.17 777.468 221.17C781.951 221.17 785.474 217.809 785.474 213.648Z" fill="#5A5A5A"></path> <path d="M829.667 211.568C829.667 220.37 823.022 227.011 814.375 227.011C810.292 227.011 806.93 225.491 804.448 223.01V236.612H798.363V196.766H804.448V199.966C806.93 197.486 810.372 195.966 814.375 195.966C823.022 196.126 829.667 202.847 829.667 211.568ZM804.448 211.568C804.448 217.089 808.371 221.17 813.895 221.17C819.339 221.17 823.342 217.169 823.342 211.568C823.342 205.967 819.339 201.967 813.895 201.967C808.371 202.047 804.448 206.047 804.448 211.568Z" fill="#5A5A5A"></path> </g> <defs> <clipPath id="clip0"> <rect width="837" height="238" fill="white"></rect> </clipPath> </defs> </svg> 